<?xml version="1.0" encoding="iso-8859-1"?>
<!-- Generator: Adobe Illustrator 19.0.0, SVG Export Plug-In . SVG Version: 6.00 Build 0)  -->
<svg version="1.1" id="Layer_1" xmlns="http://www.w3.org/2000/svg" xmlns:xlink="http://www.w3.org/1999/xlink" x="0px" y="0px"
	 viewBox="0 0 512 512" style="enable-background:new 0 0 512 512;" xml:space="preserve">
<path style="fill:#18CFAB;" d="M512,256.006C512,397.402,397.394,512.004,256.004,512C114.606,512.004,0,397.402,0,256.006
	C-0.007,114.61,114.606,0,256.004,0C397.394,0,512,114.614,512,256.006z"/>
<path style="fill:#18CFAB;" d="M511.729,266.709c0,0-0.054-0.054-0.058-0.058L360.395,115.374c-15.492-15.491-40.7-15.491-56.187,0
	l-65.424,65.435c-12.665,12.668-10.429,31.929,5.565,47.925c0.143,0.143,0.334,0.196,0.487,0.323
	c0.395,0.418,14.176,14.204,14.329,14.33c0.083,0.087,0.148,0.179,0.231,0.267l-15.764,15.765c-0.09-0.086-0.183-0.155-0.275-0.24
	c-0.126-0.151-13.911-13.934-14.331-14.33c-0.125-0.151-0.177-0.34-0.32-0.482c-15.998-15.997-35.266-18.234-47.911-5.581
	l-65.338,64.796c-7.515,7.455-11.66,17.412-11.682,28.039c-0.019,10.623,4.091,20.596,11.574,28.073c0,0,36.977,36.98,36.979,36.981
	c0,0,114.651,114.653,114.654,114.654l0.385,0.385C399.929,505.923,506.268,399.361,511.729,266.709z"/>
<g>
	<path style="fill:#F6F6F6;" d="M396.644,151.631l-36.25-36.256c-15.492-15.492-40.7-15.492-56.186,0l-65.425,65.434
		c-12.665,12.668-10.428,31.929,5.566,47.925c2.478,2.478,6.492,2.478,8.97,0c2.478-2.475,2.478-6.492,0-8.97
		c-8.592-8.595-14.566-20.983-5.566-29.987l65.425-65.435c10.543-10.543,27.705-10.543,38.247,0l36.25,36.256
		c10.543,10.549,10.543,27.711,0,38.253l-65.425,65.434c-3.513,3.513-7.818,4.937-12.813,4.237
		c-5.615-0.796-11.55-4.185-17.168-9.803c-2.478-2.478-6.492-2.478-8.97,0c-2.478,2.475-2.478,6.492,0,8.97
		c7.575,7.579,16,12.212,24.356,13.395c1.399,0.195,2.787,0.294,4.154,0.294c7.322,0,14.098-2.81,19.41-8.124l65.425-65.435
		C412.133,192.334,412.133,167.125,396.644,151.631z"/>
	<path style="fill:#F6F6F6;" d="M258.692,283.323c-2.478,2.478-2.478,6.495,0,8.97c8.592,8.592,14.566,20.98,5.547,30.002
		l-64.809,65.329c-5.055,5.101-11.819,7.92-19.044,7.935c-0.021,0-0.041,0-0.062,0c-7.204,0-13.962-2.787-19.029-7.855
		l-36.977-36.983c-5.079-5.076-7.87-11.85-7.857-19.078c0.016-7.226,2.831-13.993,7.929-19.054l65.357-64.815
		c8.997-9.004,21.398-3.029,29.99,5.563c2.478,2.478,6.492,2.478,8.97,0s2.478-6.495,0-8.97
		c-15.997-15.997-35.264-18.234-47.91-5.581l-65.338,64.796c-7.514,7.455-11.661,17.412-11.682,28.038
		c-0.018,10.623,4.092,20.596,11.574,28.073l36.977,36.98c7.465,7.465,17.403,11.571,27.999,11.571c0.028,0,0.059,0,0.09,0
		c10.626-0.021,20.578-4.175,28.027-11.689l64.787-65.31c12.668-12.671,10.431-31.929-5.566-47.923
		C265.184,280.845,261.17,280.845,258.692,283.323z"/>
	<path style="fill:#F6F6F6;" d="M196.467,315.555c1.238,1.238,2.862,1.858,4.484,1.858s3.246-0.62,4.484-1.858l110.083-110.086
		c2.478-2.478,2.478-6.492,0-8.97c-2.478-2.478-6.492-2.478-8.97,0L196.467,306.586
		C193.989,309.064,193.989,313.077,196.467,315.555z"/>
</g>
<g>
</g>
<g>
</g>
<g>
</g>
<g>
</g>
<g>
</g>
<g>
</g>
<g>
</g>
<g>
</g>
<g>
</g>
<g>
</g>
<g>
</g>
<g>
</g>
<g>
</g>
<g>
</g>
<g>
</g>
</svg>
